# xmcd
#
# Track frame offsets:
#	150
#	16005
#	46367
#	61887
#	77012
#	91620
#	107005
#	117750
#	129860
#	145755
#	164470
#	179595
#	193187
#	216505
#	229512
#	241260
#	254842
#	267905
#
# Disc length: 3760
#
# Revision: 2
# Processed by: cddbd v1.5.1PL0 Copyright (c) Steve Scherf et al.
# Submitted via: audiograbber 1.81.03
# Normalized: r1:DSETVAR1
#
DISCID=f30eae12
DTITLE=Various Artist - Blue Moon - Smoochy Jazz and Blues For Lovers
DYEAR=1999
DGENRE=Blues
TTITLE0=Sarah Vaughan - Stormy Weather
TTITLE1=Dizzy Gillespie - It's The Talk Of The Town
TTITLE2=Billie Holiday - Blue Moon
TTITLE3=Louis Armstrong - When It's Sleepy Time Down South
TTITLE4=Frankie Lane and Jo Stafford - Basin Street Blues
TTITLE5=Dinah Washington - Smoke Gets In Your Eyes
TTITLE6=Ray Charles - I Wonder Who's Kissing Her Now
TTITLE7=Dinah Washington - Dream
TTITLE8=Glenn Miller - In The Mood
TTITLE9=Sonny Stitt - In A Sentimental Mood
TTITLE10=Lena Horne - Lover Man
TTITLE11=Erroll Garner - Over The Rainbow
TTITLE12=Bill Evans - Turn Out The Stars
TTITLE13=Ella Fitzgerald - Angel Eyes
TTITLE14=Ray Charles - Can't See You Darling
TTITLE15=Louis Armstrong - A Kiss To Build A Dream On
TTITLE16=Erroll Garner - I'm In The Mood For Love
TTITLE17=Nat King Cole - I'm Lost
EXTD=
EXTT0=
EXTT1=
EXTT2=
EXTT3=
EXTT4=
EXTT5=
EXTT6=
EXTT7=
EXTT8=
EXTT9=
EXTT10=
EXTT11=
EXTT12=
EXTT13=
EXTT14=
EXTT15=
EXTT16=
EXTT17=
PLAYORDER=
